<svg width="500" height="500" xmlns="http://www.w3.org/2000/svg" version="1.1">
<circle cx="250.000000" cy="250.000000" r="240.000000" stroke="black" stroke-width="2" fill="white" />
<line x1="436.000000" y1="250.000000" x2="490.000000" y2="250.000000" stroke="black" stroke-width="2" />
<line x1="452.882467" y1="228.676193" x2="488.685255" y2="224.913169" stroke="black" stroke-width="1" />
<line x1="449.542111" y1="207.586015" x2="484.755424" y2="200.101194" stroke="black" stroke-width="1" />
<line x1="444.015529" y1="186.960533" x2="478.253564" y2="175.835921" stroke="black" stroke-width="1" />
<line x1="436.363273" y1="167.025725" x2="469.250910" y2="152.383206" stroke="black" stroke-width="1" />
<line x1="411.080725" y1="157.000000" x2="457.846097" y2="130.000000" stroke="black" stroke-width="2" />
<line x1="415.039467" y1="130.091809" x2="444.164079" y2="108.931539" stroke="black" stroke-width="1" />
<line x1="401.601544" y1="113.497356" x2="428.354758" y2="89.408654" stroke="black" stroke-width="1" />
<line x1="386.502644" y1="98.398456" x2="410.591346" y2="71.645242" stroke="black" stroke-width="1" />
<line x1="369.908191" y1="84.960533" x2="391.068461" y2="55.835921" stroke="black" stroke-width="1" />
<line x1="343.000000" y1="88.919275" x2="370.000000" y2="42.153903" stroke="black" stroke-width="2" />
<line x1="332.974275" y1="63.636727" x2="347.616794" y2="30.749090" stroke="black" stroke-width="1" />
<line x1="313.039467" y1="55.984471" x2="324.164079" y2="21.746436" stroke="black" stroke-width="1" />
<line x1="292.413985" y1="50.457889" x2="299.898806" y2="15.244576" stroke="black" stroke-width="1" />
<line x1="271.323807" y1="47.117533" x2="275.086831" y2="11.314745" stroke="black" stroke-width="1" />
<line x1="250.000000" y1="64.000000" x2="250.000000" y2="10.000000" stroke="black" stroke-width="2" />
<line x1="228.676193" y1="47.117533" x2="224.913169" y2="11.314745" stroke="black" stroke-width="1" />
<line x1="207.586015" y1="50.457889" x2="200.101194" y2="15.244576" stroke="black" stroke-width="1" />
<line x1="186.960533" y1="55.984471" x2="175.835921" y2="21.746436" stroke="black" stroke-width="1" />
<line x1="167.025725" y1="63.636727" x2="152.383206" y2="30.749090" stroke="black" stroke-width="1" />
<line x1="157.000000" y1="88.919275" x2="130.000000" y2="42.153903" stroke="black" stroke-width="2" />
<line x1="130.091809" y1="84.960533" x2="108.931539" y2="55.835921" stroke="black" stroke-width="1" />
<line x1="113.497356" y1="98.398456" x2="89.408654" y2="71.645242" stroke="black" stroke-width="1" />
<line x1="98.398456" y1="113.497356" x2="71.645242" y2="89.408654" stroke="black" stroke-width="1" />
<line x1="84.960533" y1="130.091809" x2="55.835921" y2="108.931539" stroke="black" stroke-width="1" />
<line x1="88.919275" y1="157.000000" x2="42.153903" y2="130.000000" stroke="black" stroke-width="2" />
<line x1="63.636727" y1="167.025725" x2="30.749090" y2="152.383206" stroke="black" stroke-width="1" />
<line x1="55.984471" y1="186.960533" x2="21.746436" y2="175.835921" stroke="black" stroke-width="1" />
<line x1="50.457889" y1="207.586015" x2="15.244576" y2="200.101194" stroke="black" stroke-width="1" />
<line x1="47.117533" y1="228.676193" x2="11.314745" y2="224.913169" stroke="black" stroke-width="1" />
<line x1="64.000000" y1="250.000000" x2="10.000000" y2="250.000000" stroke="black" stroke-width="2" />
<line x1="47.117533" y1="271.323807" x2="11.314745" y2="275.086831" stroke="black" stroke-width="1" />
<line x1="50.457889" y1="292.413985" x2="15.244576" y2="299.898806" stroke="black" stroke-width="1" />
<line x1="55.984471" y1="313.039467" x2="21.746436" y2="324.164079" stroke="black" stroke-width="1" />
<line x1="63.636727" y1="332.974275" x2="30.749090" y2="347.616794" stroke="black" stroke-width="1" />
<line x1="88.919275" y1="343.000000" x2="42.153903" y2="370.000000" stroke="black" stroke-width="2" />
<line x1="84.960533" y1="369.908191" x2="55.835921" y2="391.068461" stroke="black" stroke-width="1" />
<line x1="98.398456" y1="386.502644" x2="71.645242" y2="410.591346" stroke="black" stroke-width="1" />
<line x1="113.497356" y1="401.601544" x2="89.408654" y2="428.354758" stroke="black" stroke-width="1" />
<line x1="130.091809" y1="415.039467" x2="108.931539" y2="444.164079" stroke="black" stroke-width="1" />
<line x1="157.000000" y1="411.080725" x2="130.000000" y2="457.846097" stroke="black" stroke-width="2" />
<line x1="167.025725" y1="436.363273" x2="152.383206" y2="469.250910" stroke="black" stroke-width="1" />
<line x1="186.960533" y1="444.015529" x2="175.835921" y2="478.253564" stroke="black" stroke-width="1" />
<line x1="207.586015" y1="449.542111" x2="200.101194" y2="484.755424" stroke="black" stroke-width="1" />
<line x1="228.676193" y1="452.882467" x2="224.913169" y2="488.685255" stroke="black" stroke-width="1" />
<line x1="250.000000" y1="436.000000" x2="250.000000" y2="490.000000" stroke="black" stroke-width="2" />
<line x1="271.323807" y1="452.882467" x2="275.086831" y2="488.685255" stroke="black" stroke-width="1" />
<line x1="292.413985" y1="449.542111" x2="299.898806" y2="484.755424" stroke="black" stroke-width="1" />
<line x1="313.039467" y1="444.015529" x2="324.164079" y2="478.253564" stroke="black" stroke-width="1" />
<line x1="332.974275" y1="436.363273" x2="347.616794" y2="469.250910" stroke="black" stroke-width="1" />
<line x1="343.000000" y1="411.080725" x2="370.000000" y2="457.846097" stroke="black" stroke-width="2" />
<line x1="369.908191" y1="415.039467" x2="391.068461" y2="444.164079" stroke="black" stroke-width="1" />
<line x1="386.502644" y1="401.601544" x2="410.591346" y2="428.354758" stroke="black" stroke-width="1" />
<line x1="401.601544" y1="386.502644" x2="428.354758" y2="410.591346" stroke="black" stroke-width="1" />
<line x1="415.039467" y1="369.908191" x2="444.164079" y2="391.068461" stroke="black" stroke-width="1" />
<line x1="411.080725" y1="343.000000" x2="457.846097" y2="370.000000" stroke="black" stroke-width="2" />
<line x1="436.363273" y1="332.974275" x2="469.250910" y2="347.616794" stroke="black" stroke-width="1" />
<line x1="444.015529" y1="313.039467" x2="478.253564" y2="324.164079" stroke="black" stroke-width="1" />
<line x1="449.542111" y1="292.413985" x2="484.755424" y2="299.898806" stroke="black" stroke-width="1" />
<line x1="452.882467" y1="271.323807" x2="488.685255" y2="275.086831" stroke="black" stroke-width="1" />
<line x1="436.000000" y1="250.000000" x2="490.000000" y2="250.000000" stroke="black" stroke-width="2" />
<line x1="250.000000" y1="250.000000" x2="227.421852" y2="35.183271" stroke="red" stroke-width="3" />
<line x1="250.000000" y1="250.000000" x2="254.515630" y2="292.963346" stroke="red" stroke-width="3" />
<line x1="250.000000" y1="250.000000" x2="249.664897" y2="58.000292" stroke="black" stroke-width="4" />
<line x1="250.000000" y1="250.000000" x2="250.067021" y2="288.399942" stroke="black" stroke-width="4" />
<line x1="250.000000" y1="250.000000" x2="178.018139" y2="374.718129" stroke="black" stroke-width="5" />
<line x1="250.000000" y1="250.000000" x2="264.396372" y2="225.056374" stroke="black" stroke-width="5" />
<circle cx="250.000000" cy="250.000000" r="4.000000" stroke="black" fill="black" />
</svg>
